<svg version = "1.1" width = "24.0in" height = "19.0in" viewBox = "0 0 192 152" xmlns = "http://www.w3.org/2000/svg">
	<polyline points = "4,150 5,150 5,149 6,149 6,150 7,150 7,149 8,149 8,150 9,150 9,149 10,149 11,149 11,150 12,150 12,149 13,149 13,150 14,150 14,149 15,149 15,150 16,150 16,149 16,148 16,147 16,146 16,145 16,144 16,143 16,142 16,141 16,140 16,139 16,138 16,137 16,136 16,135 15,135 15,136 14,136 14,135 13,135 13,136 12,136 12,135 11,135 11,136 10,136 10,135 9,135 9,136 9,137 9,138 9,139 9,140 9,141 9,142 8,142 8,143 7,143 7,142 6,142 6,143 5,143 5,142 4,142 4,143 3,143 3,142 2,142 2,143 2,144 2,145 2,146 2,147 2,148 2,149 3,149 4,149 4,150" fill = "none" stroke = "black" stroke-width = "0.008" />
	<polyline points = "16,135 16,134 16,133 16,132 16,131 16,130 16,129 16,128 16,127 16,126 16,125 16,124 16,123 16,122 16,121 15,121 14,121 13,121 12,121 11,121 10,121 9,121 9,122 8,122 8,121 7,121 7,122 6,122 6,121 5,121 5,122 4,122 4,121 3,121 3,122 3,123 2,123 2,124 3,124 3,125 2,125 2,126 3,126 3,127 2,127 2,128 3,128 3,129 3,130 2,130 2,131 3,131 3,132 2,132 2,133 3,133 3,134 2,134 2,135 3,135 3,136 4,136 4,135 5,135 5,136 6,136 6,135 7,135 7,136 8,136 8,135 9,135" fill = "none" stroke = "black" stroke-width = "0.008" />
	<polyline points = "4,121 5,121" fill = "none" stroke = "black" stroke-width = "0.008" />
	<polyline points = "6,121 7,121" fill = "none" stroke = "black" stroke-width = "0.008" />
	<polyline points = "8,121 9,121 9,120 10,120 10,121" fill = "none" stroke = "black" stroke-width = "0.008" />
	<polyline points = "11,121 11,120 12,120 12,121" fill = "none" stroke = "black" stroke-width = "0.008" />
	<polyline points = "13,121 13,120 14,120 14,121" fill = "none" stroke = "black" stroke-width = "0.008" />
	<polyline points = "15,121 15,120 16,120 17,120 17,121 18,121 19,121 20,121 21,121 22,121 23,121 23,120 24,120 24,119 23,119 23,118 24,118 24,117 23,117 23,116 24,116 24,115 23,115 23,114 23,113 24,113 24,112 23,112 23,111 24,111 24,110 23,110 23,109 24,109 24,108 23,108 23,107 22,107 22,106 21,106 21,107 20,107 20,106 19,106 19,107 18,107 18,106 17,106 16,106 16,107 15,107 15,106 14,106 14,107 13,107 13,106 12,106 12,107 11,107 11,106 10,106 10,107 10,108 10,109 10,110 10,111 10,112 10,113 9,113 9,114 8,114 8,113 7,113 7,114 6,114 6,113 5,113 5,114 4,114 4,113 3,113 3,114 3,115 3,116 3,117 3,118 3,119 3,120 3,121" fill = "none" stroke = "black" stroke-width = "0.008" />
	<polyline points = "22,106 22,105 23,105 23,104 23,103 23,102 23,101 23,100 23,99 23,98 23,97 23,96 23,95 23,94 23,93 23,92 23,91 23,90 23,89 23,88 23,87 23,86 23,85 23,84 22,84 21,84 20,84 19,84 18,84 17,84 17,85 17,86 17,87 17,88 17,89 17,90 17,91 16,91 16,92 16,93 16,94 16,95 16,96 16,97 16,98 16,99 15,99 15,98 14,98 14,99 13,99 13,98 12,98 12,99 11,99 11,98 10,98 9,98 9,99 8,99 8,98 7,98 7,99 6,99 6,98 5,98 5,99 4,99 4,98 3,98 2,98 2,99 2,100 2,101 2,102 2,103 2,104 2,105 3,105 3,106 4,106 4,105 5,105 5,106 6,106 6,105 7,105 7,106 8,106 8,105 9,105 10,105 10,106" fill = "none" stroke = "black" stroke-width = "0.008" />
	<polyline points = "11,106 11,105 12,105 12,106" fill = "none" stroke = "black" stroke-width = "0.008" />
	<polyline points = "13,106 13,105 14,105 14,106" fill = "none" stroke = "black" stroke-width = "0.008" />
	<polyline points = "15,106 15,105 16,105 17,105 17,106" fill = "none" stroke = "black" stroke-width = "0.008" />
	<polyline points = "18,106 18,105 19,105 19,106" fill = "none" stroke = "black" stroke-width = "0.008" />
	<polyline points = "20,106 20,105 21,105 21,106" fill = "none" stroke = "black" stroke-width = "0.008" />
	<polyline points = "17,84 17,83 17,82 17,81 17,80 17,79 17,78 17,77 16,77 16,76 16,75 16,74 16,73 16,72 16,71 15,71 15,70 14,70 14,71 13,71 13,70 12,70 12,71 11,71 11,70 10,70 10,71 10,72 10,73 10,74 10,75 10,76 10,77 10,78 10,79 10,80 10,81 10,82 10,83 10,84 9,84 9,85 8,85 8,84 7,84 7,85 6,85 6,84 5,84 5,85 4,85 4,84 3,84 3,85 3,86 3,87 3,88 3,89 3,90 3,91 3,92 4,92 4,91 5,91 5,92 6,92 6,91 7,91 7,92 8,92 8,91 9,91 10,91 10,92 11,92 11,91 12,91 12,92 13,92 13,91 14,91 14,92 15,92 15,91 16,91" fill = "none" stroke = "black" stroke-width = "0.008" />
	<polyline points = "15,70 15,69 16,69 16,68 16,67 16,66 16,65 16,64 16,63 16,62 16,61 16,60 16,59 16,58 16,57 16,56 15,56 15,55 14,55 14,56 13,56 13,55 12,55 12,56 11,56 11,55 10,55 10,56 9,56 9,57 9,58 9,59 9,60 9,61 9,62 9,63 8,63 8,62 7,62 7,63 6,63 6,62 5,62 5,63 4,63 4,62 3,62 3,63 3,64 2,64 2,65 3,65 3,66 2,66 2,67 3,67 3,68 2,68 2,69 3,69 3,70 4,70 4,69 5,69 5,70 6,70 6,69 7,69 7,70 8,70 8,69 9,69 10,69 10,70" fill = "none" stroke = "black" stroke-width = "0.008" />
	<polyline points = "11,70 11,69 12,69 12,70" fill = "none" stroke = "black" stroke-width = "0.008" />
	<polyline points = "13,70 13,69 14,69 14,70" fill = "none" stroke = "black" stroke-width = "0.008" />
	<polyline points = "15,55 15,54 16,54 17,54 17,55 18,55 19,55 20,55 21,55 22,55 23,55 23,54 24,54 24,53 23,53 23,52 24,52 24,51 23,51 23,50 24,50 24,49 23,49 23,48 23,47 24,47 24,46 23,46 23,45 24,45 24,44 23,44 23,43 24,43 24,42 23,42 23,41 22,41 22,40 21,40 21,41 20,41 20,40 19,40 19,41 18,41 18,40 17,40 17,41 16,41 16,42 16,43 16,44 16,45 16,46 16,47 16,48 15,48 15,47 14,47 14,48 13,48 13,47 12,47 12,48 11,48 11,47 10,47 10,46 10,45 10,44 10,43 10,42 10,41 9,41 8,41 8,40 7,40 7,41 6,41 6,40 5,40 5,41 4,41 4,40 3,40 3,41 2,41 2,42 2,43 2,44 2,45 2,46 2,47 2,48 2,49 2,50 2,51 2,52 2,53 2,54 3,54 3,55 4,55 4,54 5,54 5,55 6,55 6,54 7,54 7,55 8,55 8,54 9,54 10,54 10,55" fill = "none" stroke = "black" stroke-width = "0.008" />
	<polyline points = "11,55 11,54 12,54 12,55" fill = "none" stroke = "black" stroke-width = "0.008" />
	<polyline points = "13,55 13,54 14,54 14,55" fill = "none" stroke = "black" stroke-width = "0.008" />
	<polyline points = "4,40 4,39 5,39 5,40" fill = "none" stroke = "black" stroke-width = "0.008" />
	<polyline points = "6,40 6,39 7,39 7,40" fill = "none" stroke = "black" stroke-width = "0.008" />
	<polyline points = "8,40 8,39 9,39 10,39 10,38 10,37 10,36 10,35 10,34 10,33 10,32 10,31 10,30 10,29 10,28 10,27 10,26 10,25 9,25 9,24 9,23 9,22 9,21 9,20 9,19 8,19 8,18 7,18 7,19 6,19 6,18 5,18 5,19 4,19 4,18 3,18 3,19 3,20 2,20 2,21 3,21 3,22 2,22 2,23 3,23 3,24 2,24 2,25 3,25 3,26 3,27 2,27 2,28 3,28 3,29 2,29 2,30 3,30 3,31 2,31 2,32 3,32 3,33 3,34 2,34 2,35 3,35 3,36 2,36 2,37 3,37 3,38 2,38 2,39 3,39 3,40" fill = "none" stroke = "black" stroke-width = "0.008" />
	<polyline points = "9,19 9,18 10,18 11,18 11,17 10,17 10,16 11,16 11,15 10,15 10,14 11,14 11,13 10,13 10,12 10,11 11,11 11,10 10,10 10,9 11,9 11,8 10,8 10,7 11,7 11,6 10,6 10,5 9,5 9,4 8,4 8,5 7,5 7,4 6,4 6,5 5,5 5,4 4,4 4,5 4,6 4,7 4,8 4,9 4,10 4,11 3,11 3,12 3,13 3,14 3,15 3,16 3,17 3,18" fill = "none" stroke = "black" stroke-width = "0.008" />
	<polyline points = "10,39 10,40 10,41 11,41 11,42 12,42 12,41 13,41 13,42 14,42 14,41 15,41 15,42 16,42" fill = "none" stroke = "black" stroke-width = "0.008" />
	<polyline points = "17,40 17,39 17,38 17,37 17,36 17,35 17,34 17,33 17,32 17,31 17,30 17,29 17,28 17,27 17,26 17,25 17,24 17,23 17,22 17,21 16,21 16,20 15,20 15,21 14,21 14,20 13,20 13,21 12,21 12,20 11,20 11,21 10,21 10,22 10,23 10,24 10,25" fill = "none" stroke = "black" stroke-width = "0.008" />
	<polyline points = "16,149 17,149 17,150 18,150 18,149 19,149 19,150 20,150 20,149 21,149 21,150 22,150 22,149 23,149 24,149 24,148 23,148 23,147 24,147 24,146 23,146 23,145 24,145 24,144 23,144 23,143 23,142 24,142 24,141 23,141 23,140 24,140 24,139 23,139 23,138 24,138 24,137 23,137 23,136 23,135 24,135 24,134 23,134 23,133 24,133 24,132 23,132 23,131 24,131 24,130 23,130 23,129 22,129 22,128 21,128 21,129 20,129 20,128 19,128 19,129 18,129 18,128 17,128 17,129 16,129" fill = "none" stroke = "black" stroke-width = "0.008" />
	<polyline points = "12,20 12,19 13,19 13,20" fill = "none" stroke = "black" stroke-width = "0.008" />
	<polyline points = "14,20 14,19 15,19 15,20" fill = "none" stroke = "black" stroke-width = "0.008" />
	<polyline points = "16,20 16,19 17,19 18,19 18,20 19,20 19,19 20,19 20,20 21,20 21,19 22,19 22,20 23,20 23,19 24,19 24,18 24,17 24,16 24,15 24,14 24,13 24,12 24,11 24,10 24,9 24,8 24,7 24,6 23,6 23,5 22,5 22,6 21,6 21,5 20,5 20,6 19,6 19,5 18,5 18,6 17,6 16,6 16,5 15,5 15,6 14,6 14,5 13,5 13,6 12,6 12,5 11,5 11,6" fill = "none" stroke = "black" stroke-width = "0.008" />
	<polyline points = "10,12 11,12 11,13" fill = "none" stroke = "black" stroke-width = "0.008" />
	<polyline points = "10,18 10,19 11,19 11,20" fill = "none" stroke = "black" stroke-width = "0.008" />
	<polyline points = "17,77 17,76 18,76 18,77 19,77 19,76 20,76 20,77 21,77 21,76 22,76 23,76 23,77 24,77 24,76 25,76 25,77 26,77 26,76 27,76 27,77 28,77 28,76 29,76 29,75 29,74 29,73 29,72 29,71 29,70 28,70 28,69 27,69 27,70 26,70 26,69 25,69 25,70 24,70 24,69 23,69 23,68 23,67 23,66 23,65 23,64 23,63 22,63 21,63 21,62 20,62 20,63 19,63 19,62 18,62 18,63 17,63 17,62 16,62" fill = "none" stroke = "black" stroke-width = "0.008" />
	<polyline points = "16,69 16,70 16,71" fill = "none" stroke = "black" stroke-width = "0.008" />
	<polyline points = "24,109 25,109 25,108 26,108 26,109 27,109 27,108 28,108 28,109 29,109 29,108 30,108 30,107 30,106 30,105 30,104 30,103 30,102 30,101 30,100 30,99 30,98 30,97 30,96 30,95 30,94 30,93 30,92 30,91 30,90 30,89 30,88 30,87 30,86 30,85 30,84 30,83 30,82 30,81 29,81 29,80 28,80 28,81 27,81 27,80 26,80 26,81 25,81 25,80 24,80 24,81 24,82 24,83 24,84 24,85 24,86 24,87 24,88 24,89 24,90 24,91 24,92 24,93 24,94 23,94" fill = "none" stroke = "black" stroke-width = "0.008" />
	<polyline points = "23,105 23,106 23,107" fill = "none" stroke = "black" stroke-width = "0.008" />
	<polyline points = "22,63 22,62 23,62 24,62 24,63 25,63 25,62 26,62 26,63 27,63 27,62 28,62 28,63 29,63 29,62 30,62 31,62 31,63 32,63 32,62 33,62 33,63 34,63 34,62 35,62 35,63 36,63 36,62 37,62 38,62 38,61 37,61 37,60 38,60 38,59 37,59 37,58 38,58 38,57 37,57 37,56 37,55 38,55 38,54 37,54 37,53 38,53 38,52 37,52 37,51 38,51 38,50 37,50 37,49 37,48 38,48 38,47 37,47 37,46 38,46 38,45 37,45 37,44 38,44 38,43 37,43 37,42 36,42 36,41 35,41 35,42 34,42 34,41 33,41 33,42 32,42 32,41 31,41 31,42 31,43 31,44 31,45 31,46 31,47 31,48 31,49 31,50 31,51 31,52 31,53 31,54 31,55 30,55 30,56 29,56 29,55 28,55 28,56 27,56 27,55 26,55 26,56 25,56 25,55 24,55 23,55 23,56 22,56 22,55" fill = "none" stroke = "black" stroke-width = "0.008" />
	<polyline points = "21,55 21,56 20,56 20,55" fill = "none" stroke = "black" stroke-width = "0.008" />
	<polyline points = "19,55 19,56 18,56 18,55" fill = "none" stroke = "black" stroke-width = "0.008" />
	<polyline points = "17,55 16,55 16,56" fill = "none" stroke = "black" stroke-width = "0.008" />
	<polyline points = "24,149 24,150 25,150 25,149 26,149 26,150 27,150 27,149 28,149 28,150 29,150 29,149 30,149 31,149 31,148 31,147 31,146 31,145 31,144 31,143 31,142 30,142 30,141 30,140 30,139 30,138 30,137 30,136 30,135 30,134 30,133 30,132 30,131 30,130 30,129 30,128 30,127 30,126 30,125 30,124 30,123 30,122 29,122 29,121 28,121 28,122 27,122 27,121 26,121 26,122 25,122 25,121 24,121 24,122 24,123 24,124 24,125 24,126 24,127 24,128 24,129 24,130" fill = "none" stroke = "black" stroke-width = "0.008" />
	<polyline points = "24,131 24,132" fill = "none" stroke = "black" stroke-width = "0.008" />
	<polyline points = "24,133 24,134" fill = "none" stroke = "black" stroke-width = "0.008" />
	<polyline points = "24,135 24,136 24,137" fill = "none" stroke = "black" stroke-width = "0.008" />
	<polyline points = "24,138 24,139" fill = "none" stroke = "black" stroke-width = "0.008" />
	<polyline points = "24,140 24,141" fill = "none" stroke = "black" stroke-width = "0.008" />
	<polyline points = "24,142 24,143 24,144" fill = "none" stroke = "black" stroke-width = "0.008" />
	<polyline points = "24,145 24,146" fill = "none" stroke = "black" stroke-width = "0.008" />
	<polyline points = "24,147 24,148" fill = "none" stroke = "black" stroke-width = "0.008" />
	<polyline points = "10,71 9,71 9,70 8,70 8,71 7,71 7,70 6,70 6,71 5,71 5,70 4,70" fill = "none" stroke = "black" stroke-width = "0.008" />
	<polyline points = "3,70 3,71 3,72 3,73 3,74 3,75 3,76 3,77 3,78 3,79 3,80 3,81 3,82 3,83 3,84" fill = "none" stroke = "black" stroke-width = "0.008" />
	<polyline points = "30,123 31,123 31,122 32,122 32,123 33,123 33,122 34,122 34,123 35,123 35,122 36,122 37,122 37,123 38,123 38,122 39,122 39,123 40,123 40,122 41,122 41,123 42,123 42,122 43,122 44,122 44,121 44,120 44,119 44,118 44,117 44,116 44,115 44,114 44,113 44,112 44,111 44,110 44,109 44,108 44,107 44,106 44,105 44,104 44,103 44,102 44,101 44,100 44,99 44,98 44,97 44,96 44,95 44,94 44,93 44,92 44,91 44,90 44,89 44,88 44,87 44,86 44,85 44,84 44,83 44,82 44,81 43,81 42,81 42,80 41,80 41,81 40,81 40,80 39,80 39,81 38,81 38,80 37,80 37,81 36,81 36,82 36,83 36,84 36,85 36,86 36,87 36,88 36,89 36,90 36,91 36,92 36,93 36,94 36,95 36,96 36,97 36,98 36,99 36,100 36,101 36,102 35,102 35,101 34,101 34,102 33,102 33,101 32,101 32,102 31,102 31,101 30,101" fill = "none" stroke = "black" stroke-width = "0.008" />
	<polyline points = "29,109 29,110 29,111 29,112 29,113 29,114 29,115 29,116 29,117 29,118 29,119 29,120 29,121" fill = "none" stroke = "black" stroke-width = "0.008" />
	<polyline points = "18,40 19,40" fill = "none" stroke = "black" stroke-width = "0.008" />
	<polyline points = "20,40 21,40" fill = "none" stroke = "black" stroke-width = "0.008" />
	<polyline points = "22,40 23,40 23,39 24,39 24,40 25,40 25,39 26,39 26,40 27,40 27,39 28,39 28,40 29,40 29,39 30,39 30,38 30,37 30,36 30,35 30,34 30,33 30,32 29,32 28,32 27,32 26,32 25,32 24,32 24,31 24,30 24,29 24,28 24,27 24,26 24,25 23,25 23,26 22,26 22,25 21,25 21,26 20,26 20,25 19,25 19,26 18,26 18,25 17,25" fill = "none" stroke = "black" stroke-width = "0.008" />
	<polyline points = "25,55 25,54 26,54 26,55" fill = "none" stroke = "black" stroke-width = "0.008" />
	<polyline points = "27,55 27,54 28,54 28,55" fill = "none" stroke = "black" stroke-width = "0.008" />
	<polyline points = "29,55 29,54 30,54 31,54" fill = "none" stroke = "black" stroke-width = "0.008" />
	<polyline points = "31,53 30,53 30,52 31,52" fill = "none" stroke = "black" stroke-width = "0.008" />
	<polyline points = "31,51 30,51 30,50 31,50" fill = "none" stroke = "black" stroke-width = "0.008" />
	<polyline points = "31,49 30,49 30,48 30,47 31,47" fill = "none" stroke = "black" stroke-width = "0.008" />
	<polyline points = "31,46 30,46 30,45 31,45" fill = "none" stroke = "black" stroke-width = "0.008" />
	<polyline points = "31,44 30,44 30,43 31,43" fill = "none" stroke = "black" stroke-width = "0.008" />
	<polyline points = "31,42 30,42 30,41 29,41 29,40" fill = "none" stroke = "black" stroke-width = "0.008" />
	<polyline points = "28,40 28,41 27,41 27,40" fill = "none" stroke = "black" stroke-width = "0.008" />
	<polyline points = "26,40 26,41 25,41 25,40" fill = "none" stroke = "black" stroke-width = "0.008" />
	<polyline points = "24,40 24,41 24,42" fill = "none" stroke = "black" stroke-width = "0.008" />
	<polyline points = "24,43 24,44" fill = "none" stroke = "black" stroke-width = "0.008" />
	<polyline points = "24,45 24,46" fill = "none" stroke = "black" stroke-width = "0.008" />
	<polyline points = "24,47 24,48 24,49" fill = "none" stroke = "black" stroke-width = "0.008" />
	<polyline points = "24,50 24,51" fill = "none" stroke = "black" stroke-width = "0.008" />
	<polyline points = "24,52 24,53" fill = "none" stroke = "black" stroke-width = "0.008" />
	<polyline points = "24,54 24,55" fill = "none" stroke = "black" stroke-width = "0.008" />
</svg>